<?xml version="1.0" encoding="UTF-8" standalone="no"?>
<!-- Created with Inkscape (http://www.inkscape.org/) -->

<svg
   width="84mm"
   height="84mm"
   viewBox="0 0 84 84"
   version="1.1"
   id="svg5"
   xmlns="http://www.w3.org/2000/svg"
   xmlns:svg="http://www.w3.org/2000/svg">
  <defs
     id="defs2" />
  <g
     id="layer1"
     transform="translate(-8,-8)">
    <g
       id="g8707"
       transform="matrix(1.1324625,0,0,1.1324625,-6.3679993,-6.2570066)">
      <path
         id="path983-1"
         style="fill:#000000;fill-opacity:1;stroke:none;stroke-width:1.13425;stroke-linecap:butt;stroke-linejoin:miter;stroke-miterlimit:4;stroke-dasharray:none;stroke-opacity:1"
         d="M 186.11914 23.539062 C 180.16057 23.527293 174.19179 24.025194 168.41602 24.832031 C 146.88837 27.839298 126.10918 36.817051 107.44531 47.958984 C 87.607865 59.801496 68.705043 74.698833 55.056641 93.339844 C 48.277531 102.59876 42.964959 113.58122 41.427734 124.95312 C 39.74828 137.37693 39.50738 151.87659 46.613281 162.20508 C 58.340431 179.25057 76.757555 196.27347 97.78125 211.68555 C 101.3225 207.38565 104.84827 203.07281 108.34766 198.73828 C 120.41378 184.05878 132.55434 169.42988 144.95898 155.03125 C 144.80035 155.02582 144.87628 155.02911 144.71094 155.02344 C 141.25845 154.886 132.58181 154.52182 128.88672 154.11523 C 128.14752 154.03389 121.74378 152.9205 120.29297 152.66992 L 135.03125 142.29688 C 136.21984 142.46319 137.4005 142.68727 138.5957 142.79688 C 140.50399 142.97186 142.42317 143.00632 144.33398 143.15039 C 153.18049 143.81731 150.09914 143.72207 154.54883 144.01758 C 165.14592 131.9748 175.96366 120.12712 187.12891 108.59766 C 189.52952 106.03658 194.29688 100.87891 194.29688 100.87891 C 194.29687 100.87891 171.2481 101.91416 159.76367 101.65234 C 149.21852 101.76239 138.09683 101.99428 127.56641 101.61133 C 122.23429 101.41743 116.89921 101.174 111.5918 100.62695 C 102.59813 99.699969 93.928195 98.467027 86.484375 93.048828 L 112.31836 76.480469 C 113.76857 77.084307 115.16292 77.849239 116.66992 78.292969 C 119.49223 79.124029 122.37648 79.737222 125.26562 80.292969 C 139.9369 83.115075 154.32421 83.883127 169.25195 83.695312 C 174.55462 83.628586 179.85094 83.308998 185.15039 83.115234 C 200.94179 81.848757 217.06306 81.46138 232.49805 77.521484 C 232.96407 77.311426 233.39242 76.795263 233.89453 76.890625 C 235.80486 77.253216 236.18422 81.873059 236.07422 82.269531 C 235.7981 83.270921 234.33166 83.404719 233.51367 84.044922 C 229.31564 87.330344 226.05315 90.503549 222.02148 94.185547 C 204.47605 110.23578 187.72829 127.1351 171.88672 144.86523 C 173.34174 144.89542 175.08559 144.92792 177.51172 144.98242 C 182.3423 147.39849 188.42011 143.17219 193.30273 145.13867 C 194.44324 145.59814 194.12533 147.45633 194.53711 148.61523 L 188.54297 152.95703 C 185.01187 154.05388 181.59607 155.62392 177.95117 156.24609 C 172.92179 157.10461 167.67498 154.57835 162.6543 155.70508 C 162.49286 155.69831 162.56704 155.70182 162.41211 155.69531 C 153.15088 166.50777 146.91648 174.49632 137.43945 186.33398 C 129.22528 196.74384 118.13927 211.84604 111.33398 221.16602 C 114.12069 223.02843 116.9345 224.85997 119.76953 226.65625 C 122.56091 226.06352 125.261 225.51138 129.95703 224.51758 C 142.33726 222.29242 156.12547 219.64661 168.5625 218.15039 C 179.58305 216.82457 198.05785 215.60644 209.30469 215.16016 C 214.83527 214.94067 220.96702 212.33417 225.90625 214.83203 C 228.60118 216.19491 226.32128 220.8583 226.5293 223.87109 L 219.47852 228.96875 C 211.26328 231.7844 203.34442 235.68678 194.83398 237.41602 C 189.75081 238.44891 184.4624 237.14956 179.27539 237.13672 C 173.20854 237.12388 167.13516 237.07581 161.07422 237.34375 C 154.14648 237.65012 147.22897 238.16987 140.33594 238.90625 C 185.38745 264.09096 230.44867 278.8964 243.68164 270.85352 C 267.04099 256.65592 271.43138 117.69946 240.67773 51.273438 C 235.88796 40.927745 225.39801 33.242481 214.90234 28.791016 C 205.95411 24.995872 196.05009 23.558678 186.11914 23.539062 z M 140.33594 238.90625 C 133.44149 235.05211 126.54939 230.95197 119.76953 226.65625 C 115.70239 227.51989 111.95628 228.37448 105.82812 230.01758 C 105.45978 230.11632 104.69336 230.24219 104.69336 230.24219 C 104.69336 230.24219 108.76957 224.67803 111.33398 221.16602 C 106.72569 218.08619 102.19683 214.92253 97.78125 211.68555 C 87.2798 224.43674 76.634491 237.06867 66.076172 249.77148 C 65.49852 250.42588 64.618494 250.9059 64.34375 251.73438 C 63.411485 254.54614 68.064722 255.74352 69.453125 255.67188 C 71.779185 255.55203 73.791847 253.97155 75.996094 253.21875 C 87.517635 249.28364 89.444803 249.03403 102.4082 245.54883 C 114.88036 242.41181 127.56356 240.27072 140.33594 238.90625 z "
         transform="matrix(0.2336354,0,0,0.2336354,12.687395,12.589385)" />
    </g>
  </g>
</svg>
