<?xml version="1.0" encoding="UTF-8" standalone="no"?>
<!-- Created with Inkscape (http://www.inkscape.org/) -->

<svg
   width="512"
   height="512"
   viewBox="0 0 135.46667 135.46667"
   version="1.1"
   id="svg5"
   sodipodi:docname="maskable.svg"
   inkscape:version="1.1 (c68e22c387, 2021-05-23)"
   inkscape:export-filename="/home/isabella/Documents/html/songbook/public/static/maskable-512-512.png"
   inkscape:export-xdpi="96.000008"
   inkscape:export-ydpi="96.000008"
   xmlns:inkscape="http://www.inkscape.org/namespaces/inkscape"
   xmlns:sodipodi="http://sodipodi.sourceforge.net/DTD/sodipodi-0.dtd"
   xmlns="http://www.w3.org/2000/svg"
   xmlns:svg="http://www.w3.org/2000/svg">
  <sodipodi:namedview
     id="namedview7"
     pagecolor="#ffffff"
     bordercolor="#666666"
     borderopacity="1.0"
     inkscape:pageshadow="2"
     inkscape:pageopacity="0.0"
     inkscape:pagecheckerboard="0"
     inkscape:document-units="mm"
     showgrid="false"
     inkscape:zoom="2.83"
     inkscape:cx="245.58304"
     inkscape:cy="319.43463"
     inkscape:window-width="3840"
     inkscape:window-height="2084"
     inkscape:window-x="0"
     inkscape:window-y="0"
     inkscape:window-maximized="1"
     inkscape:current-layer="layer1"
     units="px"
     width="377.95276px" />
  <defs
     id="defs2" />
  <g
     inkscape:label="Layer 1"
     inkscape:groupmode="layer"
     id="layer1">
    <g
       id="g9258"
       transform="scale(1.3546667)">
      <rect
         style="fill:#9917da;fill-opacity:1;stroke:none;stroke-width:1.02102;stroke-miterlimit:4;stroke-dasharray:none;stroke-opacity:1"
         id="rect9124"
         width="100"
         height="100"
         x="0"
         y="-2.7755576e-17" />
      <circle
         style="fill:#9917da;fill-opacity:1;fill-rule:evenodd;stroke-width:0.436399"
         id="path31-9"
         cx="50"
         cy="50"
         r="42" />
      <g
         id="g8707"
         transform="matrix(1.1324625,0,0,1.1324625,-6.3679993,-6.2570066)">
        <path
           style="fill:#000000;fill-opacity:1;stroke:none;stroke-width:0.265;stroke-linecap:butt;stroke-linejoin:miter;stroke-miterlimit:4;stroke-dasharray:none;stroke-opacity:1"
           d="m 37.79045,23.794437 c 4.36054,-2.60315 9.2154,-4.70073 14.24502,-5.403334 3.59847,-0.502682 7.51593,-0.493744 10.86093,0.924944 2.45216,1.04002 4.90269,2.83563 6.02175,5.25275 7.18514,15.51947 6.15957,47.984287 0.702,51.301347 -5.64758,3.43255 -36.10878,-10.945727 -46.0422,-25.384017 -1.66019,-2.4131 -1.60379,-5.80057 -1.21141,-8.70321 0.35915,-2.65688 1.60031,-5.22281 3.18415,-7.38602 3.18875,-4.3552 7.60503,-7.83563 12.23976,-10.60246 z"
           id="path983-1"
           sodipodi:nodetypes="sssssssss" />
        <path
           style="fill:#ffffff;fill-opacity:1;stroke:none;stroke-width:1.063;stroke-miterlimit:4;stroke-dasharray:none;stroke-opacity:1"
           id="path8414"
           d="m 32.89323,34.329052 c 1.73914,1.265883 3.76452,1.553644 5.86576,1.770221 1.24,0.12781 2.48687,0.184999 3.73264,0.230301 2.46028,0.08947 5.05833,0.03511 7.52205,0.0094 3.18646,0.07264 6.39315,-0.36581 9.57728,-0.109101 0.0554,0.01738 0.19219,0.104132 0.16626,0.05215 -0.0528,-0.105918 -0.17896,-0.155488 -0.26058,-0.241224 -0.21651,-0.227478 -0.3284,-0.621755 -0.63312,-0.697714 -0.19598,-0.04885 -0.28388,0.28742 -0.42209,0.434682 -0.68083,0.72541 -1.35375,1.45824 -2.03412,2.18409 -6.4905,6.702224 -12.48542,13.856806 -18.40624,21.060002 -3.24208,4.01582 -6.57731,7.954399 -9.87595,11.923025 -0.13496,0.15289 -0.34067,0.26509 -0.40486,0.45865 -0.21781,0.65693 0.86958,0.9366 1.19396,0.91986 0.54345,-0.028 1.01364,-0.39723 1.52863,-0.57311 2.69184,-0.91938 3.14179,-0.97753 6.1705,-1.791797 4.48654,-1.128463 9.08918,-1.713193 13.70685,-1.917403 1.41605,-0.0626 2.83461,-0.051 4.25204,-0.048 1.21187,0.003 2.44745,0.30622 3.63506,0.0649 1.98834,-0.40401 3.83873,-1.315666 5.7581,-1.973502 0,0 1.64724,-1.190914 1.64724,-1.190914 v 0 c -0.0486,-0.703895 0.48387,-1.793266 -0.14576,-2.111682 -1.15398,-0.583588 -2.58657,0.02516 -3.87871,0.07644 -2.62766,0.104267 -6.94389,0.389181 -9.51868,0.698939 -2.90573,0.34957 -6.12703,0.967724 -9.01949,1.487599 -2.69576,0.570492 -3.22289,0.637608 -5.63729,1.284962 -0.43886,0.117668 -0.9679,0.08507 -1.30677,0.387744 -0.21318,0.190378 -0.0778,0.567629 -0.0828,0.853384 -0.003,0.0866 -0.0161,0.2865 0.0634,0.25207 0.147,-0.0637 0.18066,-0.26461 0.27098,-0.39691 2.85031,-3.739383 5.52707,-7.610475 8.44048,-11.302651 2.47967,-3.097331 4.00243,-5.060148 6.64077,-8.093125 4.11211,-4.727138 8.49797,-9.207344 13.12048,-13.435931 0.94194,-0.860245 1.70429,-1.60166 2.6851,-2.369251 0.19111,-0.149574 0.53387,-0.180795 0.59838,-0.414755 0.0257,-0.09263 -0.0629,-1.171911 -0.50922,-1.256625 -0.11731,-0.02228 -0.21772,0.09815 -0.3266,0.147227 -3.60616,0.920499 -7.37222,1.010991 -11.06165,1.306885 -1.23814,0.04527 -2.47557,0.120232 -3.71446,0.135822 -3.48765,0.04388 -6.84905,-0.135515 -10.27678,-0.794859 -0.67501,-0.129842 -1.34906,-0.273317 -2.00845,-0.467482 -0.35209,-0.103671 -0.67763,-0.282157 -1.01645,-0.423235 0,0 -6.03592,3.870899 -6.03592,3.870899 z" />
      </g>
      <path
         style="fill:#ffffff;fill-opacity:1;stroke:none;stroke-width:1.063;stroke-miterlimit:4;stroke-dasharray:none;stroke-opacity:1"
         id="path8428"
         d="m 39.82743,48.393727 c 0.38386,0.0663 2.07807,0.361151 2.27365,0.382673 0.97766,0.107577 3.27366,0.203639 4.18713,0.240003 3.18717,0.109299 1.60481,0.04891 4.74716,0.180668 1.32839,-0.298114 2.71661,0.370417 4.0473,0.143269 0.96438,-0.164618 1.8686,-0.580421 2.80287,-0.87063 0,0 1.58593,-1.14845 1.58593,-1.14845 v 0 c -0.10895,-0.306628 -0.0251,-0.798317 -0.32686,-0.919885 -1.29186,-0.520298 -2.89981,0.597882 -4.1779,-0.04137 -2.40366,-0.054 -2.35318,-0.03037 -4.73745,-0.172612 -3.18976,-0.190301 -1.10596,-0.09098 -4.04082,-0.312234 -0.50557,-0.03812 -1.01325,-0.04743 -1.51815,-0.09373 -0.31623,-0.029 -0.629,-0.088 -0.94348,-0.132006 0,0 -3.89938,2.7443 -3.89938,2.7443 z" />
    </g>
  </g>
</svg>
