<?xml version="1.0" encoding="UTF-8" standalone="no"?>
<!-- Created with Inkscape (http://www.inkscape.org/) -->

<svg
   width="512"
   height="512"
   viewBox="0 0 135.46667 135.46667"
   version="1.1"
   id="svg5"
   xmlns="http://www.w3.org/2000/svg"
   xmlns:svg="http://www.w3.org/2000/svg">
  <defs
     id="defs2" />
  <path
     id="rect31"
     style="fill:#ffffff;fill-rule:evenodd;stroke-width:0.270034"
     d="M 0,0 H 35.651981 L 98.997913,135.46667 H 0 Z" />
  <g
     id="g9258"
     transform="scale(1.3546667)">
    <path
       id="rect9124"
       style="fill:#000000;fill-opacity:1;stroke-width:1.02102"
       d="M 26.317899,0 100,1.6113001e-4 V 100 H 73.079166 Z" />
    <path
       id="path8414"
       style="fill:#000000;fill-opacity:1;stroke:none;stroke-width:6.16351;stroke-miterlimit:4;stroke-dasharray:none;stroke-opacity:1"
       d="m 193.11523,144.56641 -34.99804,22.44531 c 10.08389,7.33985 21.82829,9.00791 34.01172,10.26367 7.18978,0.74107 14.41934,1.07327 21.64257,1.33594 14.26522,0.51876 29.32812,0.20183 43.61329,0.0527 15.57136,0.35497 31.22693,-1.38483 46.8164,-1.05273 -3.25045,3.48522 -6.48494,6.98583 -9.74414,10.46289 -15.12492,15.6183 -29.77948,31.66681 -44.13476,47.98047 -6.02642,-0.40024 -1.85447,-0.27042 -13.83789,-1.17383 -2.58852,-0.19518 -5.18835,-0.24341 -7.77344,-0.48047 -1.6191,-0.14848 -3.21994,-0.45047 -4.83008,-0.67578 l -19.96484,14.05078 c 1.96536,0.33946 10.63925,1.84879 11.64062,1.95899 5.00562,0.55079 16.76249,1.04428 21.43945,1.23046 0.16278,0.006 0.17798,0.006 0.33594,0.0117 -16.8042,19.50539 -33.25204,39.32311 -49.59765,59.20899 -18.79826,23.28456 -38.13747,46.11994 -57.26368,69.13086 -0.78252,0.88648 -1.97547,1.53785 -2.34765,2.66015 -1.26291,3.80902 5.043,5.43105 6.92383,5.33399 3.15103,-0.16236 5.87726,-2.30443 8.86328,-3.32422 15.60785,-5.33076 18.21625,-5.66738 35.77734,-10.38867 26.01389,-6.54307 52.7004,-9.93313 79.47461,-11.11719 8.21055,-0.36296 16.43574,-0.29475 24.6543,-0.27735 7.02667,0.0174 14.19211,1.77421 21.07812,0.375 11.52881,-2.34253 22.25782,-7.62908 33.38672,-11.44335 l 9.55078,-6.9043 c -0.2818,-4.08133 2.80503,-10.3979 -0.8457,-12.24414 -6.69102,-3.38377 -14.99814,0.14604 -22.49024,0.44336 -15.23572,0.60456 -40.26223,2.25669 -55.1914,4.05273 -16.84803,2.02688 -35.52579,5.61066 -52.29688,8.625 -15.63057,3.30783 -18.68635,3.69768 -32.68554,7.45117 -0.50584,0.13563 -1.03397,0.23339 -1.56836,0.32227 14.84937,-19.79257 29.05884,-40.07194 44.39062,-59.50195 12.83833,-16.03623 21.28401,-26.85644 33.83008,-41.50391 0.1536,0.006 0.16794,0.007 0.32617,0.0137 6.80136,-1.52634 13.90952,1.89737 20.72266,0.73438 4.93762,-0.84285 9.56614,-2.97312 14.34961,-4.45899 l 8.12109,-5.8789 c -0.55782,-1.56994 -0.12882,-4.08851 -1.67383,-4.71094 -6.61432,-2.66393 -14.8468,3.06203 -21.39062,-0.21094 -3.28704,-0.0738 -5.64988,-0.11926 -7.6211,-0.16016 21.46018,-24.01859 44.14765,-46.91143 67.91602,-68.65429 5.46156,-4.98788 9.88142,-9.28568 15.56836,-13.73633 1.10809,-0.86726 3.09471,-1.04775 3.46875,-2.4043 0.14904,-0.53708 -0.36526,-6.79592 -2.95313,-7.28711 -0.68018,-0.12917 -1.26127,0.56896 -1.89257,0.85352 -20.90927,5.33725 -42.74659,5.86247 -64.13868,7.57812 -7.17899,0.26251 -14.35376,0.69672 -21.53711,0.78711 -20.22212,0.25442 -39.71124,-0.78636 -59.58593,-4.60937 -3.91385,-0.75286 -7.82321,-1.58318 -11.64649,-2.70899 -2.04149,-0.6011 -3.92803,-1.63707 -5.89258,-2.45507 z"
       transform="scale(0.1953125)" />
    <path
       id="path1521"
       style="fill:#ffffff;fill-opacity:1;stroke-width:5.22762"
       d="m 357.80859,145.12109 c -0.68018,-0.12917 -1.26127,0.56896 -1.89257,0.85352 -20.90927,5.33725 -42.74659,5.86247 -64.13868,7.57812 -7.17899,0.26251 -14.35376,0.69672 -21.53711,0.78711 -20.22212,0.25442 -39.71124,-0.78636 -59.58593,-4.60937 -2.18796,-0.42087 -4.37013,-0.88325 -6.54102,-1.39063 l 14.20508,30.375 c 12.90154,0.3171 26.28141,0.0827 39.06641,-0.0508 15.57136,0.35497 31.22693,-1.38483 46.8164,-1.05273 -3.25045,3.48522 -6.48494,6.98583 -9.74414,10.46289 -15.12492,15.6183 -29.77948,31.66681 -44.13476,47.98047 -3.25048,-0.21588 -3.95434,-0.30622 -5.40625,-0.45899 l 10.62695,22.72461 c 1.77691,-2.11729 3.48975,-4.17817 5.43164,-6.44531 0.1536,0.006 0.16794,0.007 0.32617,0.0137 6.80136,-1.52634 13.90952,1.89737 20.72266,0.73438 4.93762,-0.84285 9.56614,-2.97312 14.34961,-4.45899 l 8.12109,-5.8789 c -0.55782,-1.56994 -0.12882,-4.08851 -1.67383,-4.71094 -6.61432,-2.66393 -14.8468,3.06203 -21.39062,-0.21094 -3.28704,-0.0738 -5.64988,-0.11925 -7.6211,-0.16016 21.46018,-24.01859 44.14765,-46.91143 67.91602,-68.65429 5.46156,-4.98788 9.88142,-9.28568 15.56836,-13.73633 1.10809,-0.86726 3.09471,-1.04775 3.46875,-2.4043 0.14904,-0.53708 -0.36526,-6.79592 -2.95313,-7.28711 z m -18.90234,185.43946 c -4.72576,0.23414 -9.72759,1.68331 -14.41016,1.86914 -9.07928,0.36027 -21.52724,1.11428 -33.35156,2.02734 l 13.18945,28.20508 c 0.18644,-0.0333 0.37451,-0.0462 0.56055,-0.084 11.52881,-2.34253 22.25782,-7.62908 33.38672,-11.44335 l 9.55078,-6.9043 c -0.2818,-4.08133 2.80503,-10.3979 -0.8457,-12.24414 -2.50913,-1.26892 -5.24462,-1.56627 -8.08008,-1.42578 z"
       transform="scale(0.1953125)" />
  </g>
</svg>
