<?xml version="1.0" encoding="UTF-8" standalone="no"?>
<!-- Created with Inkscape (http://www.inkscape.org/) -->

<svg
   width="512"
   height="512"
   viewBox="0 0 135.46667 135.46667"
   version="1.1"
   id="svg5"
   xmlns="http://www.w3.org/2000/svg"
   xmlns:svg="http://www.w3.org/2000/svg">
  <defs
     id="defs2" />
  <g
     id="layer1">
    <g
       id="g9258"
       transform="scale(1.3546667)">
      <rect
         style="opacity:0.85;fill:#000000;fill-opacity:1;stroke-width:0.44567;stroke-linecap:round;stroke-linejoin:round"
         id="rect1750"
         width="100"
         height="100"
         x="0"
         y="0" />
      <path
         id="path8414"
         style="fill:#ffffff;fill-opacity:1;stroke:none;stroke-width:1.2113;stroke-miterlimit:4;stroke-dasharray:none;stroke-opacity:1"
         d="m 37.952502,28.106417 -6.878086,4.411123 c 1.981764,1.442484 4.289864,1.770303 6.684246,2.017095 1.412992,0.145641 2.833802,0.210928 4.253367,0.262549 2.803511,0.101951 5.763788,0.03966 8.571221,0.01036 3.060205,0.06976 6.136959,-0.272157 9.200722,-0.20689 -0.638804,0.684942 -1.274471,1.372908 -1.914994,2.056247 -2.972467,3.069427 -5.852495,6.223403 -8.673706,9.429489 -1.184358,-0.07866 -0.364454,-0.05315 -2.719529,-0.230691 -0.508716,-0.03836 -1.019654,-0.04783 -1.527696,-0.09442 -0.318199,-0.02918 -0.632807,-0.08853 -0.949245,-0.132809 l -3.923645,2.761366 c 0.386248,0.06671 2.090908,0.363339 2.287705,0.384996 0.983743,0.108245 3.294294,0.20523 4.213447,0.241819 0.03199,0.0011 0.03498,0.0012 0.06602,0.0023 -3.302492,3.833349 -6.534948,7.728077 -9.747315,11.636202 -3.69438,4.576061 -7.49507,9.063843 -11.253902,13.586124 -0.153787,0.174219 -0.388234,0.302231 -0.461378,0.522794 -0.248197,0.748578 0.991089,1.067352 1.360725,1.048277 0.619264,-0.03191 1.155045,-0.452884 1.74188,-0.653301 3.067375,-1.047643 3.579999,-1.113797 7.03124,-2.041661 5.112451,-1.285894 10.357091,-1.952134 15.618966,-2.184835 1.613602,-0.07133 3.23008,-0.05793 4.845255,-0.05451 1.380935,0.0034 2.789143,0.348681 4.142435,0.0737 2.265732,-0.46037 4.37428,-1.499325 6.561417,-2.248933 l 1.876994,-1.356887 c -0.05539,-0.802094 0.551266,-2.043474 -0.166204,-2.406311 -1.314971,-0.665004 -2.947551,0.0287 -4.419956,0.08713 -2.994243,0.118813 -7.912645,0.443502 -10.846642,0.796473 -3.311106,0.398339 -6.981804,1.102651 -10.277788,1.695051 -3.07184,0.650081 -3.672386,0.726697 -6.423615,1.464361 -0.09942,0.02666 -0.203205,0.04586 -0.308227,0.06333 2.918313,-3.889786 5.710868,-7.875244 8.723989,-11.693778 2.523088,-3.151562 4.182898,-5.278032 6.648549,-8.156665 0.03018,0.0013 0.033,0.0014 0.0641,0.0027 1.336656,-0.299968 2.733608,0.372886 4.072578,0.144326 0.970379,-0.165644 1.880013,-0.5843 2.820096,-0.876315 l 1.59602,-1.155366 c -0.109627,-0.308537 -0.02532,-0.803506 -0.328953,-0.92583 -1.299898,-0.523536 -2.917809,0.601774 -4.203851,-0.04146 -0.645995,-0.01451 -1.110358,-0.02343 -1.497757,-0.03147 4.217521,-4.720316 8.676237,-9.219391 13.347382,-13.492465 1.073348,-0.980256 1.941973,-1.824893 3.059616,-2.699568 0.21777,-0.17044 0.608195,-0.205912 0.681704,-0.472511 0.02929,-0.105552 -0.07179,-1.335587 -0.580371,-1.432119 -0.133675,-0.02539 -0.247875,0.111817 -0.371943,0.16774 -4.109252,1.048917 -8.40089,1.152138 -12.60503,1.489311 -1.410871,0.05159 -2.820912,0.136924 -4.23264,0.154688 -3.974208,0.05 -7.804361,-0.154541 -11.71029,-0.905869 -0.769178,-0.147958 -1.537477,-0.311138 -2.288858,-0.53239 -0.401209,-0.118134 -0.771967,-0.32173 -1.158055,-0.48249 z" />
    </g>
  </g>
</svg>
