<?xml version="1.0" encoding="UTF-8" standalone="no"?>
<svg
   viewBox="0 0 211.569 211.569"
   version="1.1"
   id="svg4"
   sodipodi:docname="vedouci21.svg"
   inkscape:version="1.2 (dc2aedaf03, 2022-05-15)"
   width="211.569"
   height="211.569"
   xmlns:inkscape="http://www.inkscape.org/namespaces/inkscape"
   xmlns:sodipodi="http://sodipodi.sourceforge.net/DTD/sodipodi-0.dtd"
   xmlns="http://www.w3.org/2000/svg"
   xmlns:svg="http://www.w3.org/2000/svg">
  <defs
     id="defs8" />
  <sodipodi:namedview
     id="namedview6"
     pagecolor="#505050"
     bordercolor="#eeeeee"
     borderopacity="1"
     inkscape:showpageshadow="0"
     inkscape:pageopacity="0"
     inkscape:pagecheckerboard="0"
     inkscape:deskcolor="#505050"
     showgrid="false"
     inkscape:zoom="6.3100813"
     inkscape:cx="64.816914"
     inkscape:cy="92.391836"
     inkscape:window-width="3840"
     inkscape:window-height="2086"
     inkscape:window-x="1080"
     inkscape:window-y="37"
     inkscape:window-maximized="1"
     inkscape:current-layer="svg4" />
  <rect
     style="fill:#ffffff;stroke:#f8c1da;stroke-width:0.25;stroke-linecap:round;stroke-linejoin:round"
     id="rect112"
     width="864.02258"
     height="587.08777"
     x="-326.66803"
     y="-175.46259" />
  <path
     fill="#000000"
     strokeWidth="0.264583"
     d="m 101.652,211.012 c -2.293,-1.546 -3.306,-5.68 -1.99,-8.122 0.494,-0.917 0.494,-0.917 -0.633,-1.888 -1.128,-0.97 -1.128,-0.97 -0.643,-1.792 0.404,-0.683 0.426,-0.878 0.133,-1.155 -0.276,-0.26 -0.38,-0.262 -0.472,-0.01 -0.079,0.212 -0.314,0.112 -0.695,-0.295 -0.499,-0.535 -1.123,-0.692 -4.677,-1.174 -19.797,-2.69 -37.494,-11.515 -52.387,-26.125 -4.366,-4.283 -4.366,-4.283 -7.805,-4.43 -3.233,-0.138 -5.182,-0.517 -7.644,-1.484 -1.232,-0.484 -0.68,-0.56 1.723,-0.239 2.132,0.285 6.86,0.028 7.285,-0.396 0.641,-0.642 -1.964,-2.776 -3.609,-2.957 -3.87,-0.425 -6.45,-1.706 -9.182,-4.56 -1.635,-1.71 -2.2,-1.902 -2.2,-0.753 0,0.868 -0.975,2.005 -1.72,2.005 -1.328,0 -2.203,-2.126 -1.235,-3.002 0.53,-0.48 2.034,-0.594 2.294,-0.173 0.194,0.314 0.416,0.328 0.848,0.054 0.24,-0.153 0.165,-0.628 -0.3,-1.914 -1.245,-3.447 -1.104,-7.036 0.407,-10.326 0.774,-1.687 0.502,-4.224 -0.521,-4.857 -0.58,-0.359 -3.846,4.803 -4.554,7.196 -0.538,1.822 -0.79,0.897 -0.344,-1.268 0.495,-2.402 1.609,-5.142 2.953,-7.262 1,-1.576 1,-1.576 0.017,-4.94 -6.25,-21.382 -4.59,-45.276 4.512,-64.91 0.66,-1.422 1.025,-2.531 0.913,-2.777 -0.102,-0.225 -0.254,-1.588 -0.338,-3.028 -0.183,-3.121 -1.58,-5.04 -2.643,-3.63 -0.414,0.549 -0.601,0.598 -1.613,0.427 -3.108,-0.525 -4.232,0.018 -4.232,2.044 0,1.72 -4.017,0.77 -6.612,-1.562 -1.568,-1.41 -1.565,-1.566 0.023,-0.991 7.677,2.78 13.909,-7.655 8.11,-13.58 -0.772,-0.787 -0.97,-1.124 -0.66,-1.124 2.885,0 8.081,4.697 6.047,5.465 -1.924,0.726 -1.89,2.347 0.095,4.545 0.816,0.903 0.924,1.157 0.685,1.605 -0.247,0.46 -0.151,0.624 0.705,1.206 1.272,0.864 1.423,0.851 2.843,-0.233 0.693,-0.528 1.769,-1.036 2.584,-1.218 1.328,-0.297 1.47,-0.415 2.835,-2.336 13.072,-18.396 33.016,-31.768 54.932,-36.833 2.503,-0.578 2.503,-0.578 3.428,-2.33 1.313,-2.49 3.378,-5.142 5.083,-6.531 1.86,-1.515 2.023,-1.35 0.51,0.508 -1.097,1.346 -3.09,5.036 -3.484,6.453 -0.154,0.553 -0.082,0.595 1.026,0.595 1.735,0 2.39,-0.345 3.166,-1.669 1.8,-3.072 5.17,-5.13 10.032,-6.13 0.989,-0.202 0.925,-0.82 -0.199,-1.91 -0.996,-0.968 -1.132,-1.67 -0.529,-2.727 0.378,-0.661 0.378,-0.661 0.388,0.19 0.006,0.563 0.182,0.943 0.52,1.124 1.203,0.643 2.201,0.084 2.201,-1.232 0,-0.668 0.022,-0.68 0.364,-0.213 0.654,0.894 0.446,1.975 -0.562,2.927 -1.119,1.055 -1.182,1.64 -0.199,1.842 4.937,1.014 8.355,3.138 10.256,6.374 0.67,1.143 1.31,1.424 3.234,1.424 0.872,0 0.912,-0.039 0.742,-0.728 -0.34,-1.389 -2.025,-4.58 -3.144,-5.958 -2.135,-2.628 -1.863,-2.795 0.711,-0.437 1.678,1.537 4.099,4.858 5.02,6.886 0.427,0.94 0.48,0.964 3.548,1.686 21.25,5 40.011,17.409 53.385,35.31 2.464,3.299 2.496,3.329 4.036,3.777 0.853,0.248 2.007,0.813 2.565,1.256 1.433,1.14 4.033,0.284 3.3,-1.086 -0.245,-0.46 -0.168,-0.678 0.486,-1.378 2.136,-2.282 2.126,-4.932 -0.018,-4.932 -1.4,0 1.394,-3.26 3.843,-4.485 2.515,-1.256 3.277,-1.126 1.864,0.318 -6.208,6.341 0.471,16.142 9.06,13.294 1.214,-0.403 -2.315,2.501 -3.645,2.999 -3.035,1.135 -3.895,1.064 -3.895,-0.322 0,-2.233 -1.031,-2.64 -4.712,-1.863 -0.752,0.16 -0.896,0.106 -1.023,-0.38 -0.191,-0.73 -0.404,-0.713 -1.688,0.137 -1.061,0.702 -1.061,0.702 -0.894,2.183 a 8.29,8.29 0 0 1 -0.235,3.016 c -0.401,1.535 -0.401,1.535 0.53,3.571 9.335,20.423 10.998,42.813 4.821,64.922 -1.085,3.884 -1.085,3.884 -0.24,5.11 1.643,2.389 3.466,7.32 3.423,9.258 -0.018,0.799 -0.018,0.799 -0.295,0.138 -1.608,-3.837 -4.47,-8.296 -4.986,-7.767 -1.013,1.04 -1.313,3.028 -0.652,4.332 1.796,3.544 1.924,7.669 0.36,11.567 -0.4,0.998 0.011,1.786 0.616,1.18 0.932,-0.931 2.858,-0.017 2.858,1.358 0,2.22 -2.911,2.25 -3.327,0.035 -0.264,-1.409 -0.468,-1.347 -2.562,0.782 -2.5,2.54 -4.734,3.673 -8.175,4.143 -2.834,0.387 -5.528,2.703 -3.756,3.23 1,0.298 5.903,0.373 7.898,0.122 2.001,-0.253 1.566,0.083 -1.323,1.021 -1.702,0.553 -2.817,0.714 -5.688,0.822 -3.572,0.135 -3.572,0.135 -7.806,4.324 -15.157,14.997 -33.634,24.057 -53.975,26.465 -1.976,0.235 -2.757,0.439 -3.085,0.809 -0.242,0.272 -0.617,0.427 -0.833,0.343 -0.646,-0.247 -0.775,0.358 -0.264,1.235 0.478,0.821 0.478,0.821 -0.639,1.748 -1.116,0.927 -1.116,0.927 -0.687,1.757 1.254,2.427 0.506,6.197 -1.586,7.988 -1.36,1.163 -1.468,1.03 -0.46,-0.56 1.438,-2.267 0.861,-5.308 -1.24,-6.535 -2.059,-1.203 -3.24,0.453 -1.885,2.645 0.745,1.205 -0.006,2.266 -1.216,1.715 -0.767,-0.35 -0.916,-1.374 -0.275,-1.905 0.785,-0.652 0.52,-2.577 -0.382,-2.775 -2.795,-0.614 -4.814,4.22 -2.854,6.834 1.26,1.678 1.247,1.798 -0.09,0.897 z m -0.924,-2.112 c -0.306,-1.373 -0.159,-2.78 0.406,-3.888 2.557,-5.012 11.518,-1.398 9.526,3.841 -0.486,1.277 -0.016,1.027 0.579,-0.31 0.787,-1.766 0.788,-4.109 0.002,-5.684 -0.583,-1.169 -0.583,-1.169 0.002,-1.566 1.632,-1.106 1.661,-1.158 1.193,-2.096 -0.467,-0.936 0.286,-2.583 1.048,-2.291 1.878,0.72 0.773,-5.476 -1.34,-7.505 -1.067,-1.026 -1.133,-0.994 -0.513,0.247 1.175,2.356 0.714,5.67 -1.03,7.415 -5.478,5.478 -14.21,-0.564 -10.808,-7.478 0.635,-1.29 0.327,-1.257 -0.895,0.096 -1.879,2.079 -2.72,7.919 -1.05,7.278 0.772,-0.296 1.484,1.258 1.051,2.293 -0.386,0.924 -0.386,0.924 0.664,1.619 1.231,0.815 1.178,0.61 0.526,2.047 -0.71,1.566 -0.7,3.847 0.027,5.536 0.648,1.507 0.886,1.68 0.611,0.446 z m 4.599,-10.596 c 0.104,-0.535 -0.76,-0.78 -2.354,-0.666 -1.17,0.083 -1.17,0.083 0.286,0.664 1.607,0.641 1.944,0.642 2.068,0.002 z m 3.223,-0.211 c 0.926,-0.48 0.926,-0.48 -0.529,-0.488 -1.65,-0.01 -2.27,0.263 -2.029,0.89 0.193,0.502 1.084,0.362 2.558,-0.402 z m -0.926,-1.269 c 1.864,-0.86 2.778,-2.272 2.778,-4.288 0,-5.027 -6.943,-6.558 -9.018,-1.99 -1.848,4.069 2.202,8.142 6.24,6.278 z m -3.756,-1.075 c -2.223,-1.356 -2.515,-4.321 -0.584,-5.946 2.269,-1.909 5.716,-0.519 5.99,2.416 0.269,2.894 -2.975,5.012 -5.406,3.53 z m 4.022,-0.807 c 2.21,-2.076 0.793,-5.555 -2.262,-5.555 -2.492,0 -3.938,2.496 -2.763,4.769 0.854,1.651 3.64,2.087 5.025,0.786 z m -6.04,1.075 c -0.905,-1 -1.15,-1.704 -1.3,-3.717 -0.135,-1.8 -0.995,-1.376 -0.995,0.49 0,2.6 0.96,4.27 2.458,4.27 0.778,0 0.778,0 -0.164,-1.043 z m 8.926,0.229 c 0.664,-0.79 0.771,-1.073 1.042,-2.758 0.174,-1.08 -0.08,-2.249 -0.49,-2.249 -0.21,0 -0.406,0.569 -0.525,1.521 -0.222,1.783 -0.445,2.28 -1.543,3.44 -0.813,0.86 -0.813,0.86 0.008,0.86 0.594,0 1.013,-0.227 1.508,-0.814 z M 96.801,194.48 c 0.014,-1.273 0.074,-2.55 0.133,-2.835 0.092,-0.448 -0.095,-0.551 -1.348,-0.741 -21.173,-3.218 -36.75,-10.763 -51.119,-24.763 -2.039,-1.986 -2.039,-1.986 -4.895,-1.117 -1.57,0.477 -2.958,0.89 -3.083,0.917 -0.41,0.089 8.272,8.312 11.56,10.949 10.75,8.62 22.43,14.343 35.99,17.636 3.664,0.89 9.516,1.947 12.34,2.23 0.324,0.032 0.402,-0.386 0.422,-2.276 z m 22.333,1.648 c 19.324,-2.677 36.935,-11.551 51.68,-26.042 4.187,-4.115 4.187,-4.115 2.91,-4.459 a 56.87,56.87 0 0 1 -2.997,-0.938 c -1.72,-0.595 -1.72,-0.595 -4.526,2.093 -13.48,12.907 -29.65,20.955 -47.532,23.66 -4.647,0.702 -4.591,0.684 -4.322,1.406 0.405,1.088 0.561,2.96 0.316,3.803 -0.29,1.003 -0.143,1.206 0.754,1.03 0.37,-0.072 2.043,-0.32 3.717,-0.553 z m -20.512,-6.712 c 1.297,-1.227 3.49,-2.587 3.75,-2.327 0.067,0.067 -0.172,0.352 -0.53,0.633 -1.457,1.146 -2.377,2.988 -1.494,2.988 0.291,0 0.53,-0.125 0.53,-0.277 0,-0.153 0.596,-0.874 1.324,-1.602 1.184,-1.184 1.292,-1.386 1.02,-1.906 -0.317,-0.603 -9.955,-17.308 -17.814,-30.876 -4.521,-7.805 -4.521,-7.805 -19.549,-7.873 -8.265,-0.038 -15.2,0.028 -15.41,0.146 -0.72,0.403 0.626,2.41 2.15,3.205 0.723,0.377 1.36,0.712 1.416,0.743 1.152,0.65 -5.798,8.472 -9.4,10.578 -2.091,1.224 -2.177,0.902 1.03,3.862 15.101,13.936 32.682,22.142 51.37,23.976 0.132,0.013 0.855,-0.558 1.607,-1.27 z m 12.525,0.205 c -0.336,-0.599 -1.003,-1.432 -1.481,-1.852 -0.478,-0.42 -0.774,-0.763 -0.658,-0.763 0.573,0 2.465,1.249 3.666,2.42 3.44,3.355 25.674,-3.289 38.796,-11.593 7.742,-4.9 17.707,-13.465 16.525,-14.205 -4.998,-3.13 -7.462,-5.54 -9.665,-9.452 -1.042,-1.85 -1.041,-1.86 0.255,-2.458 1.04,-0.48 2.617,-2.271 2.617,-2.972 0,-0.604 -1.417,-0.655 -16.14,-0.577 -14.419,0.075 -14.419,0.075 -25.751,19.717 -11.333,19.642 -11.333,19.642 -9.922,21.227 1.722,1.935 2.723,2.224 1.758,0.508 z m -6.19,-2.247 c 1.332,-0.51 0.474,-32.509 -0.88,-32.83 -2.602,-0.619 -4.274,-2.207 -5.278,-5.013 -0.418,-1.169 -17.236,-2.347 -17.236,-1.208 0,0.17 15.735,27.598 21.47,37.426 1.057,1.81 1.177,1.912 1.924,1.625 z m 3.696,-2.028 c 5.023,-8.45 20.921,-36.016 21.21,-36.775 0.168,-0.44 -0.295,-0.463 -8.337,-0.397 -8.514,0.07 -8.514,0.07 -8.977,1.437 -0.862,2.545 -2.775,4.357 -5.27,4.99 -1.237,0.315 -2.249,31.95 -1.046,32.714 0.741,0.47 1.184,0.11 2.42,-1.97 z M 38.099,165.049 c 4.314,-1.034 8.019,-3.2 11.238,-6.57 1.688,-1.766 4.475,-5.76 4.15,-5.944 a 93.954,93.954 0 0 0 -1.131,-0.582 c -3.998,-2.038 -3.01,-8.355 1.52,-9.72 1.395,-0.42 1.424,-0.664 0.438,-3.677 -0.475,-1.45 -0.819,-2.671 -0.764,-2.714 0.148,-0.115 3.806,-2.052 17.528,-9.28 11.138,-5.867 12.473,-6.506 13.097,-6.266 2.168,0.831 4.166,0.657 5.941,-0.52 1.2,-0.794 1.2,-0.794 2.475,0.104 0.701,0.494 1.96,1.282 2.796,1.752 0.837,0.47 1.522,1.003 1.522,1.185 0,1.43 -2.226,6.247 -3.911,8.466 -1.936,2.549 -1.917,2.477 -0.455,1.632 4.245,-2.454 7.973,-6.55 9.286,-10.203 0.957,-2.662 6.805,-1.951 8.238,1 1.866,3.845 4.396,6.54 8.413,8.96 0.81,0.488 1.533,0.888 1.605,0.888 0.072,0 -0.472,-0.744 -1.208,-1.654 -1.963,-2.424 -3.672,-5.925 -4.322,-8.856 -0.11,-0.498 0.137,-0.735 1.629,-1.562 0.967,-0.536 2.264,-1.333 2.881,-1.77 1.04,-0.738 1.157,-0.765 1.592,-0.371 1.473,1.332 3.946,1.798 6.017,1.132 1.066,-0.343 5.403,1.637 15.61,7.125 0.874,0.47 3.553,1.9 5.954,3.178 6.894,3.671 9.525,5.17 9.525,5.428 0,0.132 -0.296,1.167 -0.658,2.3 -0.77,2.409 -0.85,3.516 -0.258,3.516 4.778,0 6.393,8.224 1.975,10.054 -1.057,0.438 -1.02,0.644 0.56,3.076 4.919,7.569 13.675,11.503 22.812,10.251 1.754,-0.24 1.246,-0.626 -0.833,-0.63 -10.81,-0.024 -19.866,-11.326 -17.255,-21.534 3.564,-13.932 23.123,-15.872 31.493,-3.123 1.491,2.272 1.627,2.223 0.636,-0.23 -3.226,-7.989 -11.384,-13.6 -20.07,-13.807 -2.658,-0.064 -2.658,-0.064 -2.82,1.431 -0.474,4.39 -5.103,6.076 -8.843,3.22 -1.12,-0.854 -3.5,-0.063 -3.575,1.19 -0.187,3.12 -1.802,2.58 -12.724,-4.266 -19.87,-12.452 -18.212,-11.35 -18.217,-12.124 -0.01,-1.73 -1.31,-3.611 -3.265,-4.728 -1.229,-0.702 -1.99,-5.972 -1.077,-7.454 0.527,-0.854 8.063,-1.385 10.789,-0.762 1.808,0.414 1.772,0.217 -0.154,-0.847 -4.062,-2.245 -7.977,-3.08 -12.658,-2.697 -1.994,0.163 -1.994,0.163 -2.623,-1.178 -0.345,-0.738 -1.076,-2.016 -1.623,-2.84 -0.994,-1.497 -0.994,-1.497 0.023,-2.848 2.485,-3.298 3.861,-7.39 4.038,-12.002 0.106,-2.768 0.033,-2.783 -0.979,-0.196 -0.966,2.47 -2.174,4.415 -3.987,6.416 -1.78,1.967 -1.548,1.936 -3.919,0.512 -1.045,-0.628 -2.286,-1.297 -2.76,-1.487 -0.84,-0.338 -0.86,-0.384 -0.86,-1.982 0,-1.909 -0.876,-3.963 -2.148,-5.033 -0.912,-0.768 -0.936,-1.053 -1.683,-20.013 -0.61,-15.488 -0.653,-14.724 0.855,-14.944 1.911,-0.279 4.562,-1.154 4.584,-1.514 0.011,-0.176 0.003,-1.113 -0.017,-2.083 -0.092,-4.37 3.778,-7.1 7.425,-5.238 1.31,0.668 1.373,0.628 2.5,-1.609 3.92,-7.783 3.373,-16.65 -1.456,-23.636 -2,-2.895 -2.652,-3.348 -1.37,-0.954 9.446,17.647 -11.184,35.907 -24.968,22.098 -5.796,-5.806 -7,-16.09 -2.653,-22.66 1.126,-1.7 0.65,-1.447 -0.86,0.46 -5.255,6.627 -6.296,15.881 -2.684,23.849 1.427,3.148 1.677,3.352 3.09,2.524 4.181,-2.45 9.27,2.458 7.359,7.1 -0.21,0.51 1.23,1.06 4.154,1.584 1.784,0.32 1.784,0.32 1.649,2.855 -0.074,1.393 -0.32,7.534 -0.548,13.646 -0.677,18.223 -0.617,17.593 -1.77,18.746 -1.448,1.448 -1.871,2.435 -1.917,4.473 -0.022,0.984 -0.089,1.833 -0.149,1.887 -0.06,0.055 -0.882,0.486 -1.828,0.96 -0.946,0.473 -2.208,1.195 -2.804,1.604 -1.085,0.744 -1.085,0.744 -2.014,-0.234 -2.41,-2.537 -3.862,-4.836 -5.125,-8.113 -0.614,-1.596 -0.614,-1.596 -0.627,0.671 -0.025,4.284 1.09,7.912 3.567,11.612 1.445,2.16 1.445,2.16 0.375,3.736 -0.588,0.866 -1.282,2.075 -1.541,2.686 -0.472,1.11 -0.472,1.11 -4.42,1.146 -4.637,0.042 -6.23,0.39 -9.656,2.112 -2.17,1.09 -3.37,1.972 -2.196,1.615 3.01,-0.916 10.948,-0.446 11.65,0.69 0.586,0.948 0.309,6.767 -0.33,6.927 -1.555,0.39 -3.561,2.91 -3.945,4.956 -0.195,1.04 1.943,-0.393 -21.419,14.354 -7.397,4.67 -7.397,4.67 -9.561,2.346 -2.164,-2.324 -2.164,-2.324 -2.922,-1.73 -4.316,3.385 -9.621,1.55 -9.621,-3.327 0,-1.166 0,-1.166 -2.842,-0.973 -8.865,0.605 -16.553,5.826 -19.67,13.359 -1.062,2.564 -1.188,3.236 -0.35,1.857 8.397,-13.818 28.448,-12.585 32.243,1.983 2.638,10.127 -6.482,21.535 -17.237,21.56 -0.901,0.003 -1.707,0.116 -1.79,0.251 -0.432,0.699 6.946,0.715 9.838,0.022 z m 68.36,-47.467 c -0.133,-0.162 -0.326,-0.74 -0.428,-1.286 -0.244,-1.306 -0.476,-1.252 -0.864,0.198 -0.39,1.458 -1.158,1.568 -3.855,0.553 -1.62,-0.61 -2.123,-0.897 -4.643,-2.647 -1.72,-1.196 -4.06,-0.778 -11.799,2.108 -0.29,0.109 0.301,-0.44 1.316,-1.219 5.51,-4.229 6.482,-5.643 6.44,-9.378 -0.064,-5.871 0.887,-7.755 3.489,-6.903 0.63,0.207 0.622,0.175 -0.198,-0.686 -1.316,-1.382 0.634,-3.843 4.449,-5.616 2.978,-1.384 3.366,-2.076 4.606,-8.226 0.799,-3.959 0.867,-4.156 1.041,-3.043 1.332,8.476 1.935,9.778 5.317,11.492 3.835,1.943 5.607,4.036 4.447,5.254 -0.695,0.729 -0.844,1 -0.48,0.87 1.158,-0.416 1.89,-0.453 2.163,-0.11 0.765,0.963 1.266,3.345 1.298,6.174 0.046,4.062 1.77,6.626 7.094,10.545 1.846,1.36 1.759,1.422 -0.62,0.441 -6.482,-2.673 -9.14,-2.99 -11.126,-1.328 -2.24,1.876 -6.979,3.615 -7.647,2.807 z m -1.644,-1.154 c 0.14,-0.546 0.33,-1.593 0.424,-2.328 0.283,-2.206 0.551,-2.106 0.877,0.326 0.51,3.815 2.352,3.811 7.832,-0.016 2.069,-1.446 3.542,-1.465 7.65,-0.1 2.862,0.95 2.862,0.95 0.312,-1.555 -3.258,-3.2 -3.553,-3.831 -3.575,-7.638 -0.032,-5.488 -0.743,-6.42 -3.96,-5.192 -2.765,1.055 -2.784,1.012 -0.386,-0.844 2.76,-2.135 0.924,-4.72 -4.698,-6.618 -1.081,-0.365 -2.235,-3.315 -3.258,-8.333 -0.235,-1.153 -0.303,-1.041 -0.788,1.29 -1.06,5.1 -1.832,6.34 -4.847,7.785 -4.637,2.222 -5.45,3.834 -2.952,5.851 2.29,1.851 2.241,1.922 -0.547,0.781 -2.548,-1.043 -2.646,-1.013 -3.35,1.001 -0.365,1.048 -0.477,2.175 -0.477,4.808 0,4.082 0.118,3.823 -3.17,6.966 -1.396,1.335 -2.484,2.427 -2.418,2.427 0.067,0 1.47,-0.427 3.12,-0.948 3.782,-1.196 4.869,-1.136 6.894,0.376 3.744,2.795 6.888,3.638 7.317,1.961 z m -66.513,45.59 c 1.368,-0.802 1.428,-1.05 0.51,-2.095 -0.746,-0.849 -0.653,-0.855 -4.007,0.283 -2.511,0.852 -2.49,0.812 -1.24,2.337 1.054,1.287 1.781,1.207 4.737,-0.526 z m 140.628,-0.95 c 0,-0.086 -0.626,-0.314 -1.39,-0.508 a 21.855,21.855 0 0 1 -2.818,-0.98 c -0.787,-0.345 -1.447,-0.596 -1.469,-0.557 -0.021,0.038 -0.36,0.465 -0.753,0.95 -1.002,1.234 -0.991,1.25 1.733,2.584 2.279,1.115 4.697,0.348 4.697,-1.49 z M 41.8,159.423 c 2.686,-2.521 4.81,-6.521 5.48,-10.319 0.176,-0.992 0.176,-0.992 -1.514,-0.992 -1.69,0 -1.69,0 -2.018,1.838 -0.482,2.697 -1.835,5.31 -3.732,7.208 -1.718,1.717 -1.701,1.599 -0.422,3.059 0.663,0.757 0.485,0.82 2.206,-0.794 z m 130.246,0.529 c 1.022,-1.123 1.026,-1.103 -0.595,-2.68 -2.042,-1.985 -3.216,-4.445 -4.025,-8.432 -0.203,-0.998 -3.313,-1.158 -3.313,-0.171 0,2.702 2.124,7.049 4.857,9.942 2.421,2.563 2.095,2.42 3.076,1.341 z M 35.428,159.718 c 8.253,-3.088 10.676,-14.016 4.544,-20.5 -7.832,-8.28 -21.614,-2.7 -21.635,8.762 -0.016,8.67 8.909,14.8 17.091,11.738 z m -6.68,-2.849 c -8.576,-2.177 -9.422,-14.388 -1.213,-17.503 7.738,-2.937 15.214,5.142 11.598,12.533 -1.768,3.613 -6.608,5.93 -10.386,4.97 z m 5.975,-1.143 c 3.273,-1.688 4.771,-4.241 4.771,-8.131 0,-8.902 -12.376,-11.694 -16.373,-3.694 -3.752,7.507 4.22,15.632 11.602,11.825 z m -6.785,-0.359 c -4.059,-1.495 -6.206,-6.88 -4.311,-10.816 3.716,-7.72 15.274,-5.105 15.158,3.429 -0.075,5.5 -5.654,9.3 -10.847,7.387 z m 6.056,-0.58 c 7.367,-3.258 4.972,-14.348 -3.099,-14.348 -8.618,0 -10.466,11.681 -2.329,14.715 1.324,0.494 3.871,0.322 5.428,-0.366 z m 148.934,5.494 c 7.9,-1.474 12.465,-10.654 8.918,-17.934 -3.815,-7.832 -14.67,-9.489 -20.529,-3.133 -8.252,8.952 -0.345,23.299 11.611,21.067 z m -6.106,-1.331 c -8.157,-2.933 -10.546,-12.825 -4.602,-19.056 7.494,-7.857 20.768,-1.827 19.86,9.022 -0.613,7.311 -8.466,12.476 -15.258,10.034 z m 6.87,-0.311 c 7.853,-2.377 10.606,-12.086 5.148,-18.157 -7.441,-8.276 -20.834,-1.997 -19.37,9.083 0.877,6.638 7.76,11.03 14.222,9.074 z m -5.593,-8.09 c -2.909,-2.713 -0.21,-7.401 3.548,-6.161 3.944,1.301 2.995,7.163 -1.16,7.163 -1.154,0 -1.443,-0.12 -2.388,-1.002 z m 4.27,-0.033 c 2.612,-1.793 1.366,-5.844 -1.797,-5.844 -1.045,0 -1.511,0.147 -2.134,0.67 -3.193,2.688 0.49,7.536 3.931,5.174 z m -164.092,5.323 c 0.06,-0.606 -0.06,-0.888 -0.473,-1.11 -1.126,-0.602 -2.436,0.504 -1.864,1.574 0.72,1.345 2.184,1.054 2.337,-0.464 z m 176.906,0.853 c 1.179,-1.18 -0.51,-2.912 -1.747,-1.792 -0.552,0.5 -0.634,1.423 -0.166,1.89 0.445,0.445 1.42,0.395 1.913,-0.098 z m -86.333,-3.181 c 3.97,-1.987 4.755,-7.505 1.51,-10.61 -4.49,-4.296 -11.64,-0.988 -11.289,5.223 0.277,4.897 5.265,7.646 9.779,5.387 z m -5.871,-0.083 c -6.49,-3.546 -3.561,-13.064 3.712,-12.064 5.596,0.77 7.188,8.288 2.458,11.612 -1.477,1.038 -4.67,1.272 -6.17,0.452 z m 5.768,-0.71 c 5.093,-2.984 2.93,-10.956 -2.973,-10.956 -6.898,0 -8.36,9.545 -1.784,11.657 1.173,0.377 3.504,0.034 4.757,-0.7 z m -4.98,-3.263 c -2.014,-2.015 0.485,-5.516 3.015,-4.222 2.53,1.294 1.684,4.996 -1.142,4.996 -0.862,0 -1.266,-0.167 -1.872,-0.774 z m 3.272,-0.023 c 1.288,-1.013 1.245,-2.886 -0.082,-3.572 -1.528,-0.79 -2.89,-0.368 -3.435,1.065 -0.774,2.034 1.793,3.863 3.517,2.507 z m -59.611,-2.841 c -0.01,-3.05 -1.647,-7.104 -3.864,-9.57 -1.09,-1.212 -3.966,-3.403 -4.167,-3.174 -1.68,1.915 -1.714,2.827 -0.15,4.06 2.166,1.71 3.864,4.641 4.469,7.715 0.169,0.86 0.356,1.713 0.416,1.895 0.376,1.148 3.3,0.326 3.296,-0.926 z m 35.987,0.998 c 10.98,-0.027 10.98,-0.027 7.937,-1.166 -9.228,-3.455 -15.664,-8.194 -21.242,-15.641 -0.872,-1.164 -1.717,-2.083 -1.88,-2.04 -0.653,0.17 -13.73,6.954 -14.137,7.334 -0.047,0.044 0.21,1.014 0.57,2.155 1.1,3.487 1.07,3.795 -0.42,4.299 -2.282,0.77 -4.14,2.866 -4.16,4.69 -0.006,0.561 -0.006,0.561 11.173,0.479 6.148,-0.046 16.12,-0.095 22.159,-0.11 z m 77.787,-0.44 c 0,-1.826 -2.026,-4.099 -4.126,-4.627 -1.433,-0.361 -1.473,-1.02 -0.27,-4.476 0.462,-1.33 0.552,-1.887 0.332,-2.058 -0.485,-0.376 -8.666,-4.711 -11.573,-6.133 -2.666,-1.304 -2.666,-1.304 -4.265,0.87 -5.198,7.07 -12.833,12.673 -21.505,15.784 -2.91,1.044 -2.91,1.044 8.202,1.125 32.258,0.235 33.205,0.222 33.205,-0.486 z m 6.228,-0.294 c 0.641,-3.835 1.961,-6.42 4.406,-8.63 2.082,-1.88 2.007,-1.658 1.076,-3.2 -0.895,-1.482 -0.877,-1.482 -2.98,0.097 -3.526,2.65 -5.377,6.134 -5.95,11.204 -0.225,1.994 3.117,2.507 3.448,0.53 z m -68.691,-0.734 c 1.688,-7.54 14.015,-6.897 14.042,0.734 0.004,1.224 3.647,0.602 9.127,-1.558 9.686,-3.818 22.836,-15.88 19.382,-17.778 -8.045,-4.42 -13.466,-6.961 -14.262,-6.684 -1.586,0.553 -3.713,0.359 -5.4,-0.492 -1.55,-0.782 -1.55,-0.782 -2.888,0.106 -0.736,0.489 -1.9,1.162 -2.589,1.496 -1.458,0.709 -1.444,0.634 -0.594,3.134 1.147,3.371 3.232,6.519 5.927,8.945 0.957,0.861 0.957,0.861 -0.498,0.313 -4.74,-1.789 -9.02,-5.777 -11.407,-10.633 -1.53,-3.114 -6.518,-2.698 -8.166,0.68 -1.958,4.016 -6.086,7.811 -10.708,9.846 -1.574,0.693 -1.574,0.693 0.3,-1.28 3.826,-4.029 6.285,-9.672 4.647,-10.668 -0.4,-0.244 -1.525,-0.958 -2.5,-1.587 -1.772,-1.144 -1.772,-1.144 -3.268,-0.357 -1.647,0.866 -3.413,1.026 -5.473,0.496 -1.128,-0.29 -1.128,-0.29 -7.214,2.938 -9.121,4.839 -8.453,4.391 -7.885,5.284 5.048,7.935 15.164,15.18 24.95,17.87 3.711,1.02 4.084,0.953 4.477,-0.805 z m -76.96,-7.418 c 0.648,-0.663 1.566,-1.447 2.039,-1.741 0.974,-0.606 1.036,-0.994 0.39,-2.431 -0.648,-1.44 -5.433,1.49 -4.945,3.028 0.846,2.666 0.972,2.723 2.515,1.144 z m 170.05,-0.376 c 0.595,-1.655 -0.204,-2.633 -3.527,-4.32 -0.716,-0.363 -2.33,1.856 -1.665,2.287 1.53,0.99 2.425,1.69 3.269,2.554 1.31,1.34 1.247,1.358 1.923,-0.521 z M 38.473,134.265 c 0.388,-0.937 0.27,-1.022 -2.432,-1.751 -5.184,-1.399 -12.235,-0.062 -11.36,2.153 0.522,1.324 0.655,1.386 1.897,0.885 2.1,-0.848 6.045,-0.825 8.55,0.048 2.34,0.816 2.476,0.762 3.345,-1.335 z m 137.439,1.386 c 2.931,-1.04 6.742,-0.965 9.756,0.191 0.406,0.156 1.199,-1.24 1.199,-2.11 0,-1.971 -11.237,-2.278 -13.837,-0.376 -0.415,0.303 0.676,2.85 1.222,2.85 0.053,0 0.8,-0.25 1.66,-0.555 z m 18.515,-5.032 c 5.888,-21.053 4.546,-42.812 -3.85,-62.411 -0.904,-2.11 -1.684,-3.879 -1.734,-3.93 -0.05,-0.052 -0.455,0.32 -0.9,0.826 -0.444,0.506 -1.463,1.263 -2.264,1.681 -1.737,0.908 -1.702,0.58 -0.385,3.572 7.59,17.247 9.127,39.319 3.998,57.382 -0.426,1.499 3.273,7.09 4.126,6.237 0.053,-0.053 0.507,-1.564 1.009,-3.357 z m -174.035,1.13 c 2.197,-2.05 2.197,-2.05 1.397,-5.213 -4.72,-18.666 -3.22,-39.156 4.084,-55.752 1.44,-3.27 1.437,-3.176 0.115,-3.772 -0.589,-0.266 -1.609,-0.984 -2.266,-1.596 -1.195,-1.113 -1.195,-1.113 -2.252,1.17 -9.168,19.81 -10.62,43.23 -4.077,65.717 0.546,1.875 0.36,1.91 2.999,-0.554 z m 37.67,-1.32 c 9.36,-5.858 8.519,-5.07 7.585,-7.115 -3.619,-7.92 -5.045,-19.725 -3.286,-27.193 0.746,-3.166 0.791,-3.573 0.31,-2.778 -4.256,7.037 -21.746,37.766 -21.588,37.932 0.882,0.926 4.166,0.332 5.774,-1.045 1.354,-1.159 1.495,-1.099 4.04,1.709 1.348,1.487 1.76,1.798 2.128,1.601 0.25,-0.134 2.517,-1.534 5.038,-3.112 z m 104.65,-0.694 c 0.57,-0.458 0.612,-0.449 1.631,0.358 1.818,1.44 3.707,1.935 5.525,1.448 0.856,-0.23 0.896,-0.135 -2.614,-6.266 -12.97,-22.659 -19.106,-33.088 -18.942,-32.196 0.068,0.363 0.385,1.911 0.705,3.44 1.661,7.93 0.455,18.236 -3.076,26.265 -1.153,2.622 -1.805,1.885 6.001,6.785 6.747,4.235 6.747,4.235 8.467,2.435 0.946,-0.99 1.982,-2.011 2.304,-2.27 z m -119.918,-2.86 c 8.92,-15.147 12.816,-22.234 12.53,-22.788 -0.159,-0.307 -1.894,-3.39 -3.858,-6.853 -1.963,-3.463 -3.52,-6.345 -3.46,-6.405 0.06,-0.06 0.474,0.51 0.92,1.269 8.171,13.875 6.323,13.347 11.97,3.416 3.67,-6.454 3.565,-6.057 2.052,-7.74 -1.68,-1.87 -2.223,-4.884 -1.363,-7.57 0.163,-0.507 -0.166,-0.774 -2.95,-2.403 C 32.017,62.23 31.716,62.097 34.553,67.111 c 2.039,3.605 12.422,21.584 12.819,22.197 0.212,0.328 0.313,0.596 0.226,0.596 -0.25,0 -4.976,-7.964 -14.09,-23.746 -0.65,-1.123 -0.65,-1.123 -1.58,-0.735 -0.512,0.214 -1.512,0.466 -2.223,0.56 -2.37,0.315 -1.984,1.005 0.457,0.82 2.499,-0.192 1.633,0.442 -1.042,0.761 -4.947,0.59 -10.764,27.267 -9.486,43.506 0.452,5.745 2.6,17.49 3.334,18.223 0.057,0.056 1.03,-0.374 2.163,-0.957 6.363,-3.273 13.305,-3.907 13.305,-1.215 0,1.524 0.248,2.221 1.137,3.198 0.76,0.833 0.604,1 3.22,-3.444 z m 129.451,2.934 c 0.585,-0.883 0.731,-1.409 0.731,-2.617 0,-2.736 6.63,-2.171 13.19,1.124 2.496,1.253 2.164,1.547 3.256,-2.882 4.451,-18.062 2.992,-36.726 -4.243,-54.267 -1.382,-3.349 -1.382,-3.349 -3.088,-3.636 -0.938,-0.158 -1.974,-0.376 -2.302,-0.485 -0.976,-0.323 -0.673,-0.67 0.342,-0.389 1.117,0.308 2.904,0.204 2.888,-0.169 -0.006,-0.146 -0.72,-0.397 -1.587,-0.56 a 40.473,40.473 0 0 1 -2.263,-0.481 c -0.765,-0.208 -0.498,-0.59 -4.88,6.994 -21.107,36.536 -19.6,30.041 -10.627,45.773 8.035,14.09 7.453,13.303 8.583,11.595 z m -26.792,-6.93 c 3.995,-8.769 4.94,-19.175 2.61,-28.742 -1.118,-4.586 -1.242,-4.8 -2.525,-4.347 -7.225,2.55 -12.503,-6.02 -7.327,-11.895 2.948,-3.345 -12.616,-13.738 -23.972,-16.007 -6.222,-1.242 -6.483,-1.184 -6.479,1.457 0.014,9.404 0.487,13.93 1.57,15.038 1.296,1.323 1.844,2.601 2.046,4.77 0.155,1.656 0.17,1.681 1.24,2.163 0.594,0.267 1.763,0.927 2.597,1.465 2.314,1.495 6.166,-3.31 7.795,-9.724 0.467,-1.838 0.467,-1.838 0.693,-0.647 0.9,4.734 -0.605,11.138 -3.649,15.52 -1.132,1.63 -1.132,1.63 -0.466,2.61 0.366,0.539 1.019,1.65 1.45,2.471 0.785,1.492 0.785,1.492 4.27,1.513 5.122,0.03 9.5,1.407 13.081,4.11 1.761,1.33 1.707,1.393 -0.604,0.71 -2.513,-0.743 -8.293,-0.821 -10.447,-0.142 -1.618,0.51 -2.433,6.54 -0.936,6.916 1.575,0.395 3.846,3.35 3.846,5.002 0,0.582 0.319,0.918 1.786,1.884 2.19,1.442 12.338,7.817 12.45,7.821 0.045,0.002 0.482,-0.874 0.97,-1.947 z m -71.265,-2.605 c 5.608,-3.514 6.846,-4.396 6.846,-4.878 0,-1.59 1.44,-3.762 3.218,-4.857 2.022,-1.244 1.89,-6.76 -0.176,-7.36 -2.14,-0.622 -7.994,-0.532 -10.443,0.16 -2.557,0.722 -2.568,0.639 -0.133,-1.004 4.17,-2.814 7.26,-3.765 12.37,-3.804 3.644,-0.028 3.644,-0.028 4.595,-1.748 0.523,-0.946 1.184,-2.049 1.469,-2.45 0.517,-0.731 0.517,-0.731 -0.437,-2.031 -2.965,-4.04 -4.681,-10.781 -3.911,-15.363 0.27,-1.603 0.251,-1.627 1.258,1.637 1.89,6.13 5.114,9.531 7.59,8.005 1.038,-0.64 2.283,-1.295 2.768,-1.455 0.878,-0.29 0.882,-0.298 0.882,-1.998 0,-2.12 0.43,-3.18 1.878,-4.628 1.131,-1.13 1.131,-1.13 1.33,-6.042 l 0.333,-8.188 c 0.15,-3.664 0.018,-3.711 -6.584,-2.384 -11.188,2.251 -27.05,12.81 -23.969,15.957 5.538,5.659 0.267,14.034 -7.53,11.965 -1.018,-0.27 -1.177,0.043 -2.255,4.44 -2.412,9.833 -1.291,20.983 2.942,29.281 0.709,1.39 0.246,1.579 7.96,-3.255 z m 83.254,-19.456 c 1.835,-3.112 10.69,-18.43 17.22,-29.788 3.846,-6.688 3.666,-6.27 2.97,-6.9 -0.483,-0.437 -0.653,-0.37 -4.035,1.589 a 17354.53,17354.53 0 0 1 -13.585,7.846 c -11.814,6.817 -10.503,5.822 -10.02,7.607 0.688,2.552 -0.216,5.674 -2.132,7.356 -1.01,0.888 -1.573,-0.375 4.535,10.173 3.58,6.183 2.834,5.87 5.047,2.117 z M 71.516,88.948 c 6.003,-3.267 3.556,-12.557 -3.3,-12.532 -5.89,0.021 -8.831,6.731 -4.908,11.2 2.085,2.375 5.325,2.901 8.208,1.332 z m -4.108,0.5 c -6.87,-1.406 -7.463,-10.412 -0.824,-12.513 4.38,-1.386 8.878,2.986 7.841,7.62 -0.657,2.937 -4.27,5.456 -7.017,4.893 z m 2.38,-0.63 c 4.975,-1.253 5.9,-8.086 1.456,-10.754 -4.874,-2.927 -10.711,2.065 -8.48,7.251 1.295,3.01 3.874,4.296 7.025,3.503 z M 66.548,85.2 c -1.83,-1.409 -0.91,-4.423 1.447,-4.74 2.505,-0.335 3.93,3.353 1.857,4.806 -0.772,0.54 -2.563,0.505 -3.304,-0.066 z m 2.67,-0.088 c 2.092,-0.953 1.306,-4.204 -1.017,-4.204 -2.083,0 -2.967,2.232 -1.475,3.724 0.827,0.827 1.462,0.95 2.492,0.48 z m 76.772,4.112 c 2.439,-1.157 3.965,-3.787 3.772,-6.498 -0.495,-6.909 -9.514,-8.733 -12.663,-2.56 -2.802,5.493 3.3,11.71 8.89,9.058 z m -4.016,0.128 c -5.802,-1.092 -7.082,-8.834 -1.938,-11.727 4.053,-2.28 8.89,0.21 9.44,4.858 0.481,4.06 -3.425,7.637 -7.502,6.87 z m 2.918,-0.528 c 1.372,-0.381 3.214,-2.13 3.765,-3.573 2.354,-6.162 -5.56,-10.906 -9.993,-5.99 -3.959,4.39 0.454,11.166 6.228,9.563 z m -3.554,-3.927 c -2.376,-2.376 0.863,-6.002 3.431,-3.841 1.013,0.852 1.292,2.128 0.711,3.251 -0.83,1.605 -2.84,1.892 -4.142,0.59 z m 3.526,-0.306 c 0.255,-0.312 0.463,-0.954 0.463,-1.428 0,-2.818 -3.96,-3.132 -4.406,-0.35 -0.34,2.128 2.581,3.444 3.943,1.778 z m 18.323,-13.342 c 12.919,-7.485 13.78,-8.02 13.437,-8.363 -0.333,-0.333 -12.884,-0.434 -30.934,-0.247 -14.057,0.145 -14.057,0.145 -11.836,3.981 6.007,10.376 5.648,9.863 6.768,9.685 l 2.022,-0.322 c 1.68,-0.267 3.761,0.5 5.368,1.977 1.392,1.28 1.392,1.28 2.86,0.427 0.807,-0.469 6.348,-3.681 12.315,-7.138 z M 63.064,78.141 c 2.163,-1.954 4.238,-2.485 7.432,-1.903 1.237,0.226 1.237,0.226 1.914,-0.848 2.07,-3.278 7.301,-12.562 7.16,-12.704 -0.617,-0.617 -45.103,-0.28 -45.103,0.342 0,0.296 26.835,16.017 27.352,16.024 0.128,0.002 0.688,-0.408 1.245,-0.91 z m 16.468,-8.923 c 5.955,-4.415 13.165,-7.276 20.942,-8.31 3.637,-0.483 3.244,0.359 3.564,-7.65 0.152,-3.783 0.302,-7.408 0.334,-8.055 0.058,-1.177 0.058,-1.177 -1.75,-1.51 -2.949,-0.545 -4.458,-1.128 -4.244,-1.64 0.945,-2.261 -0.377,-6.918 -1.965,-6.918 -0.218,0 -0.783,0.94 -6.048,10.054 a 38784.16,38784.16 0 0 1 -6.42,11.113 C 76.859,68.554 73.89,73.755 73.89,73.912 c 0,0.097 0.797,-0.569 1.772,-1.48 0.975,-0.912 2.716,-2.358 3.87,-3.214 z m 57.648,3.95 c -0.285,-0.472 -3.468,-5.979 -7.074,-12.236 -8.454,-14.67 -14.674,-25.343 -14.933,-25.617 -0.326,-0.347 -1.777,1.62 -2.132,2.89 -0.297,1.058 -0.246,2.228 0.159,3.699 0.16,0.583 -2.051,1.429 -4.87,1.861 -0.632,0.097 -1.205,0.326 -1.275,0.508 -0.155,0.403 0.527,15.911 0.707,16.09 0.07,0.069 1.532,0.32 3.25,0.557 9.307,1.285 17.463,5.015 24.261,11.094 2.565,2.294 2.61,2.321 1.907,1.155 z M 25.702,66.02 c -6.089,-4.644 -0.474,-14.152 6.533,-11.063 0.81,0.358 1.156,0.43 0.91,0.192 -1.854,-1.792 -5.355,-2.056 -7.686,-0.578 -2.577,1.634 -2.38,1.601 -3.907,0.653 -1.545,-0.961 -1.483,-0.869 -1.05,-1.563 0.275,-0.44 0.22,-0.625 -0.37,-1.253 -2.068,-2.2 -2.28,-3.596 -0.744,-4.91 1.06,-0.908 1.06,-0.908 -0.027,-2.142 -1.959,-2.225 -4.597,-3.367 -3.271,-1.416 3.926,5.778 -0.23,13.509 -7.233,13.452 -2.279,-0.018 -2.182,0.38 0.384,1.576 2.306,1.073 3.446,0.995 3.657,-0.252 0.328,-1.944 2.842,-2.793 5.227,-1.765 0.346,0.15 0.524,0.028 0.721,-0.49 0.332,-0.873 0.407,-0.866 1.998,0.178 1.32,0.866 1.32,0.866 1.24,2.844 -0.126,3.153 0.77,5.083 3.07,6.606 1.604,1.062 1.97,1.016 0.547,-0.069 z m 2.246,0.204 c 0.103,-0.27 -0.175,-0.562 -0.876,-0.92 -1.202,-0.613 -2.068,-1.732 -2.53,-3.272 -0.332,-1.1 -0.332,-1.1 -0.652,-0.412 -0.488,1.05 0.68,3.188 2.305,4.22 1.414,0.896 1.545,0.925 1.753,0.384 z m 156.498,0.02 c 1.98,-1.024 3.47,-3.398 2.937,-4.682 -0.325,-0.785 -0.325,-0.785 -0.783,0.567 -0.464,1.37 -1.819,3.039 -2.693,3.317 a 0.74,0.74 0 0 0 -0.48,0.663 c 0,0.611 0.078,0.622 1.02,0.135 z m 1.923,-0.306 c 2.087,-1.447 2.958,-3.388 2.835,-6.322 -0.088,-2.11 -0.088,-2.11 1.232,-2.976 1.586,-1.043 1.651,-1.049 2.04,-0.196 0.211,0.463 0.435,0.617 0.722,0.495 2.637,-1.123 5.31,-0.051 5.31,2.128 0,1.051 2.665,0.574 4.851,-0.869 1.07,-0.706 1.07,-0.706 -1.305,-0.857 -6.8,-0.434 -10.782,-7.895 -7.011,-13.14 1.228,-1.708 1.23,-1.726 0.137,-1.269 -3.097,1.294 -4.626,3.448 -3.262,4.594 1.51,1.268 1.287,2.693 -0.763,4.875 -0.532,0.565 -0.615,0.8 -0.37,1.045 1.19,1.19 -2.398,3.121 -3.639,1.957 -2.376,-2.23 -7.81,-2.316 -9.151,-0.145 -0.099,0.159 0.34,0.022 0.973,-0.305 6.617,-3.41 12.655,6.121 6.889,10.874 -1.18,0.972 -0.838,1.046 0.512,0.11 z M 31.209,65.28 c 3.72,-1.405 4.062,-6.98 0.532,-8.689 a 4.733,4.733 0 0 0 -6.33,6.483 c 1.042,2.02 3.658,3.015 5.798,2.206 z m -3.324,-1.229 c -3.283,-1.617 -2.001,-6.956 1.67,-6.956 3.146,0 4.85,4.034 2.594,6.14 -1.465,1.366 -2.678,1.598 -4.264,0.816 z m 3.509,-0.63 c 2.576,-2.026 1.4,-5.797 -1.81,-5.797 -2.501,0 -3.99,2.343 -2.92,4.596 0.806,1.7 3.294,2.332 4.73,1.202 z m 152.166,1.64 c 1.863,-0.86 2.778,-2.271 2.778,-4.287 0,-4.698 -6.063,-6.5 -8.66,-2.575 -2.593,3.918 1.618,8.83 5.882,6.863 z m -3.572,-1.007 c -1.268,-0.652 -2.261,-2.533 -2.02,-3.823 0.79,-4.207 6.866,-4.014 7.232,0.23 0.246,2.851 -2.704,4.885 -5.212,3.593 z m 3.863,-0.98 c 2.052,-2.051 0.686,-5.45 -2.19,-5.45 -1.974,0 -3.26,1.254 -3.26,3.175 0,2.846 3.442,4.283 5.45,2.276 z M 80.998,60.62 c 1.769,-3.062 13.199,-23.008 14.027,-24.479 1.2,-2.133 -1.573,-2.666 -3.782,-0.726 -1.771,1.555 -4.892,-5.407 -5.34,-11.915 -0.123,-1.793 -0.286,-2.653 -0.502,-2.653 -0.175,0 -1.974,0.482 -3.997,1.072 -17.786,5.18 -33.999,16.493 -45.042,31.429 -1.863,2.52 -1.786,2.263 -1.128,3.78 0.676,1.558 0.94,2.878 0.577,2.878 -0.157,0 -0.286,-0.176 -0.286,-0.39 0,-0.669 -1.146,-2.785 -1.508,-2.785 -0.465,0 -0.435,0.27 0.18,1.624 0.287,0.635 0.526,1.658 0.529,2.275 0.011,2.162 45.02,2.055 46.272,-0.11 z m 95.469,0.194 c 0.012,-0.776 0.26,-1.803 0.61,-2.527 0.325,-0.67 0.52,-1.29 0.434,-1.376 -0.29,-0.29 -0.932,0.483 -1.382,1.66 -0.245,0.644 -0.552,1.17 -0.68,1.17 -0.308,0 -0.027,-1.189 0.598,-2.53 0.797,-1.712 0.943,-1.41 -3.185,-6.598 -10.873,-13.666 -26.318,-23.894 -43.714,-28.947 -3.833,-1.114 -3.664,-1.153 -3.664,0.866 0,6.311 -3.266,14.045 -5.349,12.666 -1.166,-0.772 -3.582,-1.028 -4.168,-0.442 -0.286,0.286 7.486,14.17 14.466,25.845 1.34,2.24 46,2.447 46.034,0.213 z M 24.427,59.576 c 0.433,-0.964 1.122,-2.184 1.532,-2.712 1.151,-1.48 1.263,-1.727 0.63,-1.388 -1.145,0.613 -2.663,2.686 -2.951,4.03 -0.525,2.445 -0.285,2.466 0.79,0.07 z m 163.371,0.197 c -0.215,-1.274 -1.387,-3.122 -2.503,-3.947 -1.07,-0.792 -1.025,-0.58 0.35,1.644 0.636,1.03 1.36,2.272 1.606,2.759 0.562,1.108 0.78,0.925 0.547,-0.456 z M 33.541,56.282 c 0,-1.28 -4.932,-2 -5.973,-0.874 -0.642,0.695 -0.642,0.695 -0.02,0.503 1.305,-0.401 3.708,-0.214 4.603,0.36 0.931,0.595 1.39,0.599 1.39,0.01 z m 145.528,0.015 c 0.914,-0.565 2.786,-0.738 4.326,-0.4 0.824,0.182 0.856,0.162 0.577,-0.36 -0.765,-1.43 -5.749,-0.735 -6.053,0.845 -0.112,0.58 0.098,0.566 1.15,-0.085 z M 35.934,53.193 c 11.779,-15.77 28.599,-27.244 47.197,-32.197 2.545,-0.678 2.919,-0.92 2.926,-1.892 0.002,-0.304 0.242,-1.485 0.533,-2.624 0.663,-2.589 0.972,-2.472 -3.546,-1.341 -16.283,4.075 -30.488,12.182 -42.646,24.34 -4.502,4.502 -11.676,13.151 -11.182,13.481 0.05,0.034 0.75,0.262 1.555,0.506 0.805,0.245 1.87,0.745 2.367,1.111 1.195,0.881 1.051,0.952 2.796,-1.384 z m 142.455,1.266 c 0.648,-0.43 1.75,-0.929 2.447,-1.107 1.593,-0.409 1.629,-0.233 -0.678,-3.333 C 166.671,31.897 147.759,19.538 125.8,14.495 c -1.613,-0.37 -1.746,-0.314 -1.403,0.589 0.138,0.362 0.452,1.672 0.697,2.91 0.447,2.25 0.447,2.25 3.13,2.99 19.128,5.28 35.869,16.753 47.383,32.474 1.522,2.077 1.287,1.993 2.782,1 z M 111.284,33.817 c 2.541,-1.062 2.688,-1.777 0.811,-3.943 -0.048,-0.056 -0.836,0.182 -1.75,0.529 -2.376,0.902 -7.371,0.919 -9.303,0.032 -1.67,-0.766 -1.63,-0.774 -2.426,0.487 -1.038,1.644 -1.042,1.751 -0.075,2.256 3.8,1.985 8.907,2.24 12.742,0.639 z M 98.163,30.829 c 0.66,-1.263 0.66,-1.263 -1.024,-2.81 -2.022,-1.855 -3.481,-4.226 -4.114,-6.684 -0.496,-1.923 -0.555,-1.968 -2.169,-1.645 -2.025,0.405 0.34,6.645 4.009,10.573 2.113,2.263 2.385,2.31 3.298,0.566 z m 18.404,-0.7 c 2.754,-2.882 5.662,-9.202 4.685,-10.18 -0.965,-0.965 -2.45,-0.3 -2.893,1.295 -0.715,2.571 -2.034,4.735 -4.04,6.627 -1.823,1.72 -1.823,1.72 -1.084,3.037 0.953,1.696 0.972,1.692 3.332,-0.778 z m -7.078,0.102 c 6.032,-1.677 10.066,-8.842 8.456,-15.021 C 115.482,5.754 103.838,2.404 96.93,9.164 c -9.51,9.305 -0.358,24.657 12.559,21.067 z m -7.156,-0.744 c -12.712,-4.203 -10.04,-22.97 3.264,-22.92 12.636,0.046 16.316,16.914 4.865,22.294 -2.075,0.975 -6.13,1.287 -8.13,0.626 z m 7.335,-0.702 c 7.416,-2.795 9.686,-12.24 4.358,-18.136 -5.697,-6.305 -16.225,-4.274 -18.947,3.654 -3.153,9.181 5.6,17.87 14.59,14.482 z m -6.556,-4.997 c -2.792,-1.268 -4.341,-5.051 -3.194,-7.797 2.59,-6.196 11.827,-4.526 11.802,2.134 -0.018,4.516 -4.558,7.503 -8.608,5.663 z m 4.299,-0.163 c 5.332,-1.583 5.238,-9.321 -0.133,-10.883 -6.43,-1.87 -10.323,7.315 -4.416,10.422 1.664,0.876 2.774,0.988 4.549,0.461 z m -3.66,-2.026 c -1.941,-1.125 -2.58,-3.436 -1.48,-5.354 1.997,-3.484 7.338,-2.06 7.338,1.956 0,3.05 -3.229,4.923 -5.859,3.398 z m 3.931,-0.447 c 1.968,-1.053 1.85,-4.938 -0.181,-5.989 -3.549,-1.835 -7.095,2.411 -4.437,5.312 1.25,1.363 2.887,1.603 4.618,0.677 z M 92.345,19.007 c 0.216,-0.008 0.332,-0.448 0.334,-1.269 0.002,-0.69 0.172,-1.97 0.378,-2.842 0.446,-1.899 0.503,-1.82 -1.145,-1.593 -1.781,0.245 -1.943,0.52 -2.09,3.556 -0.125,2.607 -0.125,2.607 1.033,2.383 0.638,-0.123 1.308,-0.229 1.49,-0.235 z m 29.129,-2.403 c -0.103,-2.991 -0.127,-3.03 -2.146,-3.307 -1.596,-0.22 -1.58,-0.239 -1.11,1.32 0.212,0.708 0.388,1.715 0.39,2.237 0.008,2.014 0.268,2.313 2.072,2.375 0.885,0.03 0.885,0.03 0.794,-2.625 z M 107.036,2.531 c 0.639,-0.74 0.428,-0.844 -0.566,-0.279 -0.785,0.446 -0.873,0.447 -1.624,0.02 -0.982,-0.557 -1.043,-0.18 -0.09,0.57 0.8,0.63 1.556,0.526 2.28,-0.311 z M 7.046,55.749 C 1.795,54.227 0.21,46.964 4.366,43.456 c 3.463,-2.924 8.57,-2.05 10.806,1.848 3.106,5.414 -2.154,12.175 -8.125,10.445 z m 4.667,-0.792 c 5.085,-2.302 5.386,-9.348 0.512,-12 -1.951,-1.063 -5.195,-0.943 -6.898,0.255 -6.626,4.657 -0.963,15.072 6.386,11.745 z M 6.799,53.684 C 1.604,51.324 3.278,43.601 8.985,43.601 c 1.861,0 2.758,0.352 3.822,1.498 4.067,4.381 -0.595,11.043 -6.008,8.585 z m 4.766,-0.637 c 1.514,-0.835 2.666,-3.112 2.417,-4.776 -0.608,-4.052 -5.387,-5.775 -8.32,-3 -4.322,4.091 0.667,10.664 5.903,7.776 z m 189.06,2.758 c -5.567,-1.83 -7.266,-7.736 -3.4,-11.823 4.455,-4.711 12.12,-1.605 12.12,4.911 0,4.401 -4.794,8.202 -8.72,6.912 z m 3.756,-0.608 c 3.262,-0.978 5.324,-4.855 4.354,-8.189 -2.038,-7.01 -12.288,-6.21 -13.037,1.019 -0.513,4.95 3.907,8.6 8.683,7.17 z m -3.533,-0.992 c -6.446,-2.072 -4.692,-11.37 2.039,-10.812 5.207,0.432 6.667,7.65 2.062,10.197 -1.221,0.675 -3.058,0.95 -4.1,0.615 z m 4.246,-1.16 c 3.245,-2.148 2.94,-7.018 -0.548,-8.756 -5.067,-2.525 -9.77,3.827 -5.93,8.009 1.675,1.824 4.38,2.136 6.478,0.747 z"
     id="path2" />
</svg>
