<?xml version="1.0" encoding="UTF-8" standalone="no"?>
<!-- Created with Inkscape (http://www.inkscape.org/) -->

<svg
   width="512"
   height="512"
   viewBox="0 0 135.46667 135.46667"
   version="1.1"
   id="svg5"
   xmlns="http://www.w3.org/2000/svg"
   xmlns:svg="http://www.w3.org/2000/svg">
  <defs
     id="defs2" />
  <rect
     style="opacity:1;fill:#ffffff;fill-opacity:1;stroke-width:0.603734;stroke-linecap:round;stroke-linejoin:round"
     id="rect1750"
     width="135.46667"
     height="135.46667"
     x="0"
     y="0" />
  <path
     id="path8414"
     style="fill:#000000;fill-opacity:1;stroke:none;stroke-width:1.64091;stroke-miterlimit:4;stroke-dasharray:none;stroke-opacity:1"
     d="m 51.412991,38.074827 -9.317514,5.975602 c 2.684629,1.954085 5.811335,2.39817 9.054925,2.732491 1.914133,0.197295 3.838857,0.285737 5.761895,0.355666 3.797823,0.13811 7.808011,0.05373 11.611147,0.01404 4.145558,0.0945 8.313534,-0.368682 12.463912,-0.280267 -0.865366,0.927868 -1.726483,1.859833 -2.594179,2.785529 -4.026702,4.158051 -7.92818,8.430637 -11.74998,12.773815 -1.604411,-0.106558 -0.493714,-0.072 -3.684056,-0.31251 -0.68914,-0.05197 -1.381291,-0.06479 -2.069518,-0.127907 -0.431054,-0.03953 -0.857243,-0.119929 -1.285911,-0.179912 l -5.315231,3.74073 c 0.523237,0.09037 2.832483,0.492204 3.099077,0.521542 1.332644,0.146636 4.462671,0.278018 5.707817,0.327584 0.04334,0.0015 0.04739,0.0016 0.08944,0.0031 -4.473776,5.19291 -8.852677,10.468968 -13.204363,15.763175 -5.004654,6.199037 -10.153322,12.278486 -15.245286,18.404675 -0.208331,0.236 -0.525928,0.40942 -0.625014,0.70821 -0.336224,1.01407 1.342595,1.4459 1.843329,1.42006 0.838896,-0.0432 1.564701,-0.6135 2.359667,-0.885 4.155271,-1.41921 4.849705,-1.50883 9.524987,-2.765773 6.925667,-1.741958 14.030406,-2.644491 21.158493,-2.959723 2.185893,-0.09663 4.375681,-0.07848 6.563705,-0.07384 1.870707,0.0046 3.778359,0.472346 5.611619,0.09984 3.069312,-0.623648 5.925691,-2.031086 8.888533,-3.046555 l 2.542701,-1.838129 c -0.07503,-1.08657 0.746782,-2.768227 -0.225151,-3.25975 -1.781347,-0.900859 -3.992949,0.03888 -5.987567,0.118032 -4.056201,0.160952 -10.718997,0.600798 -14.693585,1.078956 -4.485445,0.539616 -9.458017,1.493724 -13.922977,2.296229 -4.161319,0.880643 -4.974859,0.984432 -8.701857,1.983721 -0.134681,0.03611 -0.275275,0.06212 -0.417545,0.08579 3.953342,-5.269364 7.736323,-10.668331 11.818097,-15.841172 3.417944,-4.269316 5.666433,-7.149974 9.006568,-11.049562 0.04088,0.0018 0.0447,0.0019 0.08684,0.0037 1.810723,-0.406356 3.703127,0.505137 5.516985,0.195514 1.31454,-0.224392 2.546791,-0.791532 3.82029,-1.187115 l 2.162076,-1.565135 c -0.148508,-0.417965 -0.0343,-1.088483 -0.445622,-1.254192 -1.760929,-0.709216 -3.952659,0.815204 -5.694817,-0.05616 -0.875108,-0.01966 -1.504165,-0.03174 -2.028962,-0.04263 5.713336,-6.394455 11.75341,-12.489202 18.081254,-18.277793 1.454029,-1.327921 2.630727,-2.472122 4.14476,-3.657015 0.295006,-0.23089 0.823902,-0.278942 0.923482,-0.640095 0.03968,-0.142988 -0.09725,-1.809275 -0.786209,-1.940044 -0.181085,-0.0344 -0.335788,0.151475 -0.503859,0.227232 -5.566667,1.420933 -11.380406,1.560763 -17.075614,2.01752 -1.91126,0.06989 -3.821396,0.185486 -5.733817,0.20955 -5.383727,0.06773 -10.572308,-0.209351 -15.86354,-1.22715 -1.04198,-0.200434 -2.082769,-0.421488 -3.10064,-0.721211 -0.543504,-0.160032 -1.045758,-0.435837 -1.568778,-0.653613 z" />
</svg>
